# AST/ASF file generated using VICON BodyLanguage
# -----------------------------------------------
:version 1.10
:name VICON
:units
  mass 1.0
  length 0.45
  angle deg
:documentation
   .ast/.asf automatically generated from VICON data using
   VICON BodyBuilder and BodyLanguage model FoxedUp or BRILLIANT.MOD
:root
   order TX TY TZ RX RY RZ
   axis XYZ
   position 0 0 0  
   orientation 0 0 0 
:bonedata
  begin
     id 1 
     name lhipjoint
     direction 0.573633 -0.743009 0.344793 
     length 2.46257 
     axis 0 0 0  XYZ
  end
  begin
     id 2 
     name lfemur
     direction 0.34202 -0.939693 0  
     length 7.3842  
     axis 0 0 20  XYZ
    dof rx ry rz
    limits (-160.0 20.0)
           (-70.0 70.0)
           (-60.0 70.0)
  end
  begin
     id 3 
     name ltibia
     direction 0.34202 -0.939693 0   
     length 7.50407   
     axis 0 0 20   XYZ
    dof rx
    limits (-10.0 170.0)
  end
  begin
     id 4 
     name lfoot
     direction 0.110749 -0.304281 0.946123   
     length 1.95925   
     axis -90 7.62852e-016 20   XYZ
    dof rx rz
    limits (-45.0 90.0)
           (-70.0 20.0)
  end
  begin
     id 5 
     name ltoes
     direction 1.53554e-011 -4.21843e-011 1   
     length 0.978318   
     axis -90 7.62852e-016 20   XYZ
    dof rx
    limits (-90.0 20.0)
  end
  begin
     id 6 
     name rhipjoint
     direction -0.488109 -0.791693 0.367385   
     length 2.31113  
     axis 0 0 0  XYZ 
  end
  begin
     id 7 
     name rfemur
     direction -0.34202 -0.939693 0   
     length 7.40965   
     axis 0 0 -20   XYZ
    dof rx ry rz
    limits (-160.0 20.0)
           (-70.0 70.0)
           (-70.0 60.0)
  end
  begin
     id 8 
     name rtibia
     direction -0.34202 -0.939693 0   
     length 7.55548   
     axis 0 0 -20   XYZ
    dof rx
    limits (-10.0 170.0)
 end
 begin
     id 9 
     name rfoot
     direction -0.127594 -0.350561 0.927808   
     length 2.07199  
     axis -90 -7.62852e-016 -20   XYZ
    dof rx rz
    limits (-45.0 90.0)
           (-20.0 70.0)
  end
  begin
     id 10 
     name rtoes
     direction -1.53542e-011 -4.21909e-011 1   
     length 1.02667   
     axis -90 -7.62852e-016 -20   XYZ
    dof rx
    limits (-90.0 20.0)
  end
  begin
     id 11 
     name lowerback
     direction -0.0103342 0.997298 -0.0727278   
     length 2.02836   
     axis 0 0 0   XYZ
    dof rx ry rz
    limits (-20.0 45.0)
           (-30.0 30.0)
           (-30.0 30.0)
  end
  begin
     id 12 
     name upperback
     direction 0.0171146 0.999786 -0.011606   
     length 2.03179   
     axis 0 0 0   XYZ
    dof rx ry rz
    limits (-20.0 45.0)
           (-30.0 30.0)
           (-30.0 30.0)
  end
  begin
     id 13 
     name thorax
     direction 0.0216927 0.999513 0.0224343   
     length 2.03882   
     axis 0 0 0   XYZ
    dof rx ry rz
    limits (-20.0 45.0)
           (-30.0 30.0)
           (-30.0 30.0)
  end
  begin
     id 14 
     name lowerneck
     direction 0.000989287 0.993907 0.110221   
     length 1.75428   
     axis 0 0 0   XYZ
    dof rx ry rz
    limits (-20.0 45.0)
           (-30.0 30.0)
           (-30.0 30.0)
  end
  begin
     id 15 
     name upperneck
     direction -0.0172474 0.994813 -0.100253   
     length 1.77058   
     axis 0 0 0   XYZ
    dof rx ry rz
    limits (-20.0 45.0)
           (-30.0 30.0)
           (-30.0 30.0)
  end
  begin
     id 16
     name head
     direction -0.00486455 0.99894 -0.0457663  
     length 1.77427  
     axis 0 0 0   XYZ
    dof rx ry rz
    limits (-20.0 45.0)
           (-30.0 30.0)
           (-30.0 30.0)
  end
  begin
     id 17 
     name lclavicle
     direction 0.927314 0.333734 -0.169441  
     length 3.97584  
     axis 0 0 0   XYZ
    dof ry rz
    limits (-20.0 10.0)
           (0.0 20.0)
  end
  begin
     id 18 
     name lhumerus
     direction 1 -4.48965e-011 -3.25313e-028   
     length 4.76468   
     axis 180 -30 -90   XYZ
    dof rx ry rz
    limits (-60.0 90.0)
           (-90.0 90.0)
           (-90.0 90.0)
  end
  begin
     id 19
     name lradius
     direction 1 -4.48969e-011 -2.8465e-028   
     length 3.52712   
     axis -180 -30 -90   XYZ
    dof rx
    limits (-10.0 170.0)
  end
  begin
     id 20
     name lwrist
     direction 1 -4.4896e-011 -7.78665e-028   
     length 1.76356   
     axis 1.91374e-015 90 90   XYZ
    dof ry
    limits (-180.0 0.0)
 end
  begin
     id 21 
     name lhand
     direction 1 -4.48959e-011 -1.55733e-027   
     length 0.859564   
     axis 9.9371e-016 90 90   XYZ
    dof rx rz
    limits (-90.0 90.0)
           (-45.0 45.0)
  end
  begin
     id 22 
     name lfingers
     direction 1 -4.48965e-011 -3.11466e-027   
     length 0.693002   
     axis 1.98742e-015 90 90   XYZ
    dof rx
    limits (0.0 90.0)
  end
  begin
     id 23
     name lthumb
     direction 0.707107 -6.34948e-011 0.707107   
     length 0.995017   
     axis -90 45 2.85299e-015   XYZ
    dof rx rz
    limits (-45.0 45.0)
           (-45.0 45.0)
  end
  begin
     id 24 
     name rclavicle
     direction -0.899388 0.348209 -0.264294   
     length 3.68366  
     axis 0 0 0   XYZ 
    dof ry rz
    limits (-10.0 20.0)
           (-20.0 0.0)
  end
  begin
     id 25 
     name rhumerus
     direction -1 -4.48965e-011 -3.01536e-027  
     length 4.90577   
     axis 180 30 90   XYZ
    dof rx ry rz
    limits (-90.0 60.0)
           (-90.0 90.0)
           (-90.0 90.0)
  end
  begin
     id 26 
     name rradius
     direction -1 -4.48966e-011 3.93291e-027   
     length 3.42692   
     axis -180 30 90   XYZ
    dof rx
    limits (-10.0 170.0)
  end
  begin
     id 27 
     name rwrist
     direction -1 -4.48969e-011 -7.78665e-028   
     length 1.71346   
     axis 1.91374e-015 -90 -90   XYZ
    dof ry
    limits (-180.0 0.0)
  end
  begin
     id 28
     name rhand
     direction -1 -4.48967e-011 -1.55733e-027   
     length 0.740957   
     axis 9.9371e-016 -90 -90   XYZ
    dof rx rz
    limits (-90.0 90.0)
           (-45.0 45.0)
  end
  begin
     id 29
     name rfingers
     direction -1 -4.48949e-011 -3.11466e-027   
     length 0.597378   
     axis 1.98742e-015 -90 -90   XYZ
    dof rx
    limits (0.0 90.0)
  end
  begin
     id 30
     name rthumb
     direction -0.707107 -6.34931e-011 0.707107   
     length 0.857719   
     axis -90 -45 -2.85299e-015   XYZ
    dof rx rz
    limits (-45.0 45.0)
           (-45.0 45.0)
  end
:hierarchy
  begin
    root lhipjoint rhipjoint lowerback
    lhipjoint lfemur
    lfemur ltibia
    ltibia lfoot
    lfoot ltoes
    rhipjoint rfemur
    rfemur rtibia
    rtibia rfoot
    rfoot rtoes
    lowerback upperback
    upperback thorax
    thorax lowerneck lclavicle rclavicle
    lowerneck upperneck
    upperneck head
    lclavicle lhumerus
    lhumerus lradius
    lradius lwrist
    lwrist lhand lthumb
    lhand lfingers
    rclavicle rhumerus
    rhumerus rradius
    rradius rwrist
    rwrist rhand rthumb
    rhand rfingers
  end

#!OML:ASF E:\I on waltz\AllaLogoMonkeySwing\Project 1\Capture day 1\Session 1\Subject1.ASF
:FULLY-SPECIFIED
:DEGREES
49
root 1.17422 17.7967 5.24304 5.17408 -0.420377 2.55174
lowerback -0.989038 -0.457123 -4.82014
upperback -3.31708 -0.64264 0.18164
thorax -2.81027 -0.19265 2.89774
lowerneck -13.6581 0.518195 0.109936
upperneck 26.2074 0.801203 -0.342085
head 10.6706 0.335148 -0.0366667
rclavicle -9.38015e-016 1.50082e-014
rhumerus -29.9193 -19.5672 -81.0985
rradius 17.332
rwrist 1.42688
rhand -16.3427 -33.3684
rfingers 7.12502
rthumb 9.86952 -63.1171
lclavicle -9.38015e-016 1.50082e-014
lhumerus -39.9888 22.7424 77.751
lradius 32.4801
lwrist -6.40508
lhand -6.31919 -12.4716
lfingers 7.12502
lthumb 19.5255 16.568
rfemur -3.41589 -1.12488 10.9024
rtibia 14.8301
rfoot -13.8497 -14.6429
rtoes 14.739
lfemur -2.52887 0.100365 -19.7387
ltibia 11.1051
lfoot -15.2525 1.42071
ltoes -27.6349
50
root 1.1746 17.7974 5.23715 5.21266 -0.363729 2.50114
lowerback -0.93982 -0.441731 -4.76642
upperback -3.2779 -0.623241 0.185324
thorax -2.7992 -0.185263 2.8714
lowerneck -14.3992 0.615104 -0.495449
upperneck 27.1295 0.774087 0.820288
head 11.1544 0.401731 0.489557
rclavicle 1.12562e-014 1.23246e-014
rhumerus -30.4342 -24.6302 -78.1152
rradius 17.2589
rwrist 13.3713
rhand -6.31164 -35.9718
rfingers 7.12502
rthumb 19.5328 -65.0107
lclavicle 1.12562e-014 1.23246e-014
lhumerus -39.9309 22.6619 77.8454
lradius 32.3947
lwrist -6.36331
lhand -6.36019 -12.4006
lfingers 7.12502
lthumb 19.4861 16.643
rfemur -3.49502 -1.13466 10.9714
rtibia 14.8851
rfoot -13.8931 -14.6682
rtoes 14.9497
lfemur -2.61129 0.0767183 -19.6742
ltibia 11.1219
lfoot -15.2486 1.39684
ltoes -27.5988
51
root 1.17522 17.7985 5.2312 5.26181 -0.277165 2.49872
lowerback -0.909349 -0.461058 -4.77904
upperback -3.23733 -0.649548 0.192412
thorax -2.77192 -0.199358 2.88622
lowerneck -14.3588 0.576926 -0.508815
upperneck 27.0532 0.734446 0.780162
head 11.1179 0.377465 0.471114
rclavicle 9.60068e-015 6.36111e-015
rhumerus -30.2891 -24.5456 -78.2382
rradius 17.415
rwrist 13.3321
rhand -6.07422 -36.1023
rfingers 7.12502
rthumb 19.761 -65.1178
lclavicle 9.60068e-015 6.36111e-015
lhumerus -39.8758 22.7064 77.9234
lradius 32.2854
lwrist -6.39664
lhand -6.47678 -12.2841
lfingers 7.12502
lthumb 19.374 16.7707
rfemur -3.53462 -1.19816 10.975
rtibia 14.8648
rfoot -13.8784 -14.6798
rtoes 14.9793
lfemur -2.72283 0.0623077 -19.6744
ltibia 11.1731
lfoot -15.2495 1.36789
ltoes -27.5071
52
root 1.17712 17.8004 5.22544 5.31229 -0.182815 2.51928
lowerback -0.886542 -0.47656 -4.79996
upperback -3.19668 -0.670776 0.182365
thorax -2.74078 -0.21105 2.88785
lowerneck -14.2584 0.539773 -0.458408
upperneck 26.928 0.694089 0.687343
head 11.0516 0.352997 0.422039
rclavicle 8.53842e-015 -9.83984e-015
rhumerus -30.1005 -24.3789 -78.3927
rradius 17.4753
rwrist 13.2767
rhand -5.88907 -36.2149
rfingers 7.12502
rthumb 19.939 -65.212
lclavicle 8.53842e-015 -9.83984e-015
lhumerus -39.8852 22.7364 77.9843
lradius 32.2736
lwrist -6.38311
lhand -6.41365 -12.29
lfingers 7.12502
lthumb 19.4347 16.7588
rfemur -3.59066 -1.32292 10.9363
rtibia 14.8768
rfoot -13.8458 -14.67
rtoes 14.7862
lfemur -2.82878 0.0330335 -19.7165
ltibia 11.2135
lfoot -15.2325 1.33757
ltoes -27.5585
53
root 1.17912 17.8019 5.21997 5.3383 -0.0984807 2.50521
lowerback -0.839242 -0.455258 -4.75715
upperback -3.15711 -0.644064 0.157233
thorax -2.72912 -0.200112 2.83775
lowerneck -14.2456 0.46178 -0.47393
upperneck 26.8854 0.581077 0.707715
head 11.0336 0.302677 0.416487
rclavicle 4.49129e-015 1.25234e-014
rhumerus -29.9409 -24.237 -78.5202
rradius 17.4803
rwrist 13.1189
rhand -5.92485 -36.1541
rfingers 7.12502
rthumb 19.9046 -65.1548
lclavicle 4.49129e-015 1.25234e-014
lhumerus -39.9172 22.6031 78.0995
lradius 32.3309
lwrist -6.32989
lhand -6.34173 -12.3591
lfingers 7.12502
lthumb 19.5038 16.6827
rfemur -3.64981 -1.41451 10.9385
rtibia 14.9415
rfoot -13.8318 -14.6694
rtoes 14.5867
lfemur -2.90318 -0.044065 -19.7154
ltibia 11.2445
lfoot -15.2184 1.32454
ltoes -27.634
54
root 1.18104 17.8028 5.21431 5.35202 -0.0557915 2.50688
lowerback -0.767326 -0.423914 -4.7324
upperback -3.12573 -0.605627 0.133328
thorax -2.74067 -0.182129 2.79913
lowerneck -14.2534 0.392051 -0.514332
upperneck 26.8666 0.477404 0.760302
head 11.0285 0.258003 0.428372
rclavicle 1.53095e-014 -5.96354e-015
rhumerus -29.8484 -24.2424 -78.5565
rradius 17.5139
rwrist 13.1245
rhand -5.9401 -36.0747
rfingers 7.12502
rthumb 19.8899 -65.0769
lclavicle 1.53095e-014 -5.96354e-015
lhumerus -39.9241 22.4758 78.2291
lradius 32.3353
lwrist -6.33878
lhand -6.35238 -12.3561
lfingers 7.12502
lthumb 19.4936 16.6867
rfemur -3.674 -1.46297 10.9248
rtibia 14.9437
rfoot -13.8033 -14.6568
rtoes 14.4575
lfemur -2.95035 -0.11366 -19.7302
ltibia 11.2612
lfoot -15.1983 1.3197
ltoes -27.5768
55
root 1.18406 17.8033 5.20948 5.35553 -0.0133803 2.54026
lowerback -0.683783 -0.430348 -4.76238
upperback -3.09731 -0.61833 0.132351
thorax -2.75711 -0.187835 2.81576
lowerneck -14.1735 0.350463 -0.506686
upperneck 26.769 0.432248 0.701986
head 10.9765 0.231071 0.399026
rclavicle -1.04082e-014 -8.15017e-015
rhumerus -29.7583 -24.2522 -78.5598
rradius 17.5444
rwrist 13.2695
rhand -5.87782 -36.0171
rfingers 7.12502
rthumb 19.9498 -65.0131
lclavicle -1.04082e-014 -8.15017e-015
lhumerus -39.9651 22.4602 78.3185
lradius 32.3182
lwrist -6.35993
lhand -6.27595 -12.3947
lfingers 7.12502
lthumb 19.5671 16.6407
rfemur -3.67061 -1.57267 10.8609
rtibia 14.9136
rfoot -13.7828 -14.6227
rtoes 14.302
lfemur -2.97692 -0.17477 -19.7944
ltibia 11.2711
lfoot -15.1977 1.33567
ltoes -27.5859
56
root 1.18636 17.8042 5.20505 5.35619 0.00304165 2.51032
lowerback -0.613475 -0.45664 -4.77218
upperback -3.06816 -0.655861 0.165729
thorax -2.763 -0.206252 2.85684
lowerneck -14.0719 0.34344 -0.480524
upperneck 26.6828 0.430136 0.647046
head 10.9242 0.225914 0.373608
rclavicle -1.75365e-014 7.35503e-015
rhumerus -29.6204 -24.0185 -78.6823
rradius 17.5793
rwrist 13.2063
rhand -5.97305 -35.912
rfingers 7.12502
rthumb 19.8583 -64.9175
lclavicle -1.75365e-014 7.35503e-015
lhumerus -40.0317 22.5503 78.3488
lradius 32.2864
lwrist -6.3522
lhand -6.20945 -12.4778
lfingers 7.12502
lthumb 19.631 16.551
rfemur -3.67832 -1.63251 10.8839
rtibia 14.9241
rfoot -13.8073 -14.6009
rtoes 14.4117
lfemur -2.98558 -0.214442 -19.7714
ltibia 11.2493
lfoot -15.1671 1.36401
ltoes -27.6365
57
root 1.18679 17.8056 5.19967 5.36411 -0.0316923 2.43799
lowerback -0.54127 -0.446144 -4.75427
upperback -3.03999 -0.644332 0.189826
thorax -2.77534 -0.200812 2.87205
lowerneck -14.0481 0.352573 -0.444708
upperneck 26.6558 0.426866 0.670475
head 10.9094 0.230895 0.3753
rclavicle 3.00041e-015 2.18663e-015
rhumerus -29.4919 -23.6812 -78.8968
rradius 17.691
rwrist 12.8155
rhand -6.23298 -35.774
rfingers 7.12502
rthumb 19.6084 -64.8051
lclavicle 3.00041e-015 2.18663e-015
lhumerus -40.0366 22.622 78.3732
lradius 32.2268
lwrist -6.35001
lhand -6.23776 -12.502
lfingers 7.12502
lthumb 19.6038 16.5296
rfemur -3.71452 -1.58239 10.9767
rtibia 14.9671
rfoot -13.826 -14.5903
rtoes 14.6357
lfemur -2.99444 -0.202158 -19.6757
ltibia 11.212
lfoot -15.1046 1.39152
ltoes -27.6076
58
root 1.18798 17.8066 5.19532 5.38089 -0.0387826 2.4621
lowerback -0.484612 -0.413534 -4.79945
upperback -2.99976 -0.603747 0.172745
thorax -2.769 -0.180519 2.87939
lowerneck -14.0873 0.326205 -0.481594
upperneck 26.6176 0.377212 0.748985
head 10.9029 0.214328 0.403287
rclavicle -1.41292e-014 7.95139e-015
rhumerus -29.3602 -23.3829 -79.089
rradius 17.804
rwrist 12.3302
rhand -6.33174 -35.7854
rfingers 7.12502
rthumb 19.5134 -64.8262
lclavicle -1.41292e-014 7.95139e-015
lhumerus -39.9905 22.6988 78.4267
lradius 32.1644
lwrist -6.49604
lhand -6.24911 -12.498
lfingers 7.12502
lthumb 19.5929 16.5348
rfemur -3.72934 -1.58979 10.9389
rtibia 14.9498
rfoot -13.7985 -14.5566
rtoes 14.7051
lfemur -3.02249 -0.219508 -19.7101
ltibia 11.2022
lfoot -15.0744 1.42195
ltoes -27.5574
59
root 1.18956 17.8078 5.19057 5.40616 -0.0335916 2.47531
lowerback -0.438846 -0.398937 -4.82471
upperback -2.95875 -0.586174 0.164795
thorax -2.75376 -0.172336 2.88525
lowerneck -14.1401 0.271781 -0.626667
upperneck 26.6094 0.300102 0.883276
head 10.9102 0.181045 0.466389
rclavicle -1.31415e-014 -3.97569e-016
rhumerus -29.2214 -23.0966 -79.2577
rradius 17.8829
rwrist 12.0492
rhand -6.2235 -35.9414
rfingers 7.12502
rthumb 19.6175 -64.9716
lclavicle -1.31415e-014 -3.97569e-016
lhumerus -39.9451 22.8909 78.4391
lradius 32.0673
lwrist -6.77463
lhand -6.31132 -12.2306
lfingers 7.12502
lthumb 19.5331 16.8082
rfemur -3.74508 -1.58452 10.9153
rtibia 14.8699
rfoot -13.7175 -14.5588
rtoes 14.7865
lfemur -3.0764 -0.22238 -19.7321
ltibia 11.2215
lfoot -15.0706 1.40231
ltoes -27.5483
60
root 1.19004 17.8084 5.18415 5.42145 -0.0529816 2.39883
lowerback -0.357793 -0.369079 -4.75568
upperback -2.93128 -0.549229 0.164113
thorax -2.77439 -0.155575 2.84569
lowerneck -14.1363 0.20869 -0.766448
upperneck 26.5924 0.203561 1.03682
head 10.9035 0.141732 0.532696
rclavicle 8.5788e-015 -9.93923e-015
rhumerus -29.1489 -22.8743 -79.4058
rradius 17.994
rwrist 11.8364
rhand -6.14144 -36.034
rfingers 7.12502
rthumb 19.6964 -65.0562
lclavicle 8.5788e-015 -9.93923e-015
lhumerus -39.8731 22.9901 78.4458
lradius 31.9611
lwrist -6.96103
lhand -6.35631 -11.6388
lfingers 7.12502
lthumb 19.4898 17.4044
rfemur -3.79196 -1.50029 11.017
rtibia 14.8205
rfoot -13.6477 -14.6261
rtoes 14.8131
lfemur -3.12122 -0.157086 -19.6214
ltibia 11.2223
lfoot -15.0494 1.32066
ltoes -27.6079
